<svg width="256" height="256" viewBox="0 0 256 256" fill="none" xmlns="http://www.w3.org/2000/svg">
<path d="M206.452 0C233.817 0.00016493 256 22.1841 256 49.5488V138.822L250.092 138.162C250.031 138.155 249.969 138.15 249.908 138.146C249.787 138.136 249.665 138.131 249.543 138.131C249.515 138.131 249.487 138.131 249.46 138.132C249.417 138.132 249.373 138.134 249.329 138.136C249.308 138.137 249.287 138.138 249.266 138.139C248.649 138.172 248.031 138.319 247.443 138.591C247.431 138.596 247.419 138.603 247.407 138.608C247.308 138.655 247.21 138.706 247.112 138.76C247.101 138.766 247.09 138.771 247.079 138.777C247.065 138.785 247.05 138.793 247.036 138.801C246.948 138.851 246.863 138.906 246.779 138.961C246.763 138.971 246.748 138.983 246.732 138.993C245.966 139.511 245.384 140.211 245.013 141.002C245.01 141.007 245.007 141.012 245.005 141.018L202.391 232.37C202.388 232.376 202.385 232.382 202.383 232.388C202.293 232.582 202.217 232.78 202.153 232.981C202.149 232.995 202.145 233.008 202.141 233.021C202.123 233.08 202.106 233.139 202.091 233.198C202.081 233.236 202.072 233.274 202.062 233.312C202.054 233.349 202.045 233.385 202.037 233.421C202.032 233.444 202.027 233.467 202.022 233.49C202.018 233.512 202.014 233.534 202.01 233.556C202.003 233.593 201.995 233.63 201.989 233.667C201.984 233.7 201.98 233.733 201.976 233.766C201.972 233.788 201.969 233.811 201.966 233.833C201.963 233.853 201.96 233.873 201.958 233.893C201.952 233.945 201.947 233.999 201.942 234.052C201.94 234.074 201.938 234.097 201.937 234.119C201.932 234.184 201.928 234.249 201.926 234.314C201.925 234.327 201.924 234.34 201.924 234.353C201.922 234.421 201.922 234.489 201.923 234.558C201.923 234.57 201.925 234.583 201.925 234.596C201.926 234.656 201.928 234.717 201.932 234.777C201.933 234.803 201.935 234.828 201.937 234.854C201.94 234.896 201.943 234.938 201.947 234.98C201.949 234.995 201.951 235.01 201.952 235.024C201.955 235.046 201.957 235.068 201.96 235.09C201.966 235.139 201.973 235.188 201.98 235.237C201.986 235.271 201.992 235.304 201.998 235.338C202.005 235.377 202.011 235.415 202.019 235.454C202.026 235.493 202.033 235.532 202.042 235.571C202.046 235.588 202.05 235.605 202.054 235.621C202.054 235.623 202.055 235.624 202.056 235.626C202.062 235.651 202.067 235.676 202.073 235.701C202.085 235.749 202.098 235.796 202.111 235.843C202.116 235.861 202.122 235.879 202.127 235.897C202.129 235.903 202.13 235.91 202.132 235.916C202.134 235.922 202.137 235.929 202.139 235.936C202.158 235.999 202.178 236.061 202.2 236.124C202.206 236.141 202.212 236.158 202.218 236.175C202.268 236.316 202.326 236.455 202.39 236.592C202.397 236.608 202.404 236.625 202.411 236.641C202.441 236.702 202.472 236.764 202.504 236.824C202.51 236.836 202.516 236.848 202.522 236.86C202.541 236.895 202.561 236.929 202.581 236.964C202.582 236.965 202.582 236.967 202.583 236.968C202.586 236.973 202.589 236.978 202.592 236.983C202.594 236.986 202.596 236.99 202.598 236.993C202.62 237.031 202.642 237.069 202.665 237.106C202.669 237.114 202.675 237.12 202.68 237.127C202.719 237.19 202.758 237.253 202.8 237.313C202.806 237.323 202.814 237.333 202.82 237.343C202.909 237.471 203.005 237.593 203.104 237.711C203.118 237.727 203.131 237.742 203.145 237.758C203.188 237.808 203.233 237.857 203.278 237.905C203.281 237.909 203.283 237.913 203.286 237.916C203.288 237.918 203.292 237.92 203.294 237.923L203.445 238.074C203.46 238.089 203.475 238.104 203.49 238.118C203.498 238.125 203.505 238.133 203.513 238.14C203.521 238.148 203.529 238.156 203.538 238.164C203.572 238.195 203.608 238.225 203.643 238.255C203.653 238.264 203.663 238.273 203.673 238.281C203.696 238.301 203.718 238.321 203.741 238.34C203.751 238.348 203.761 238.357 203.771 238.365C203.785 238.377 203.8 238.387 203.814 238.398C203.841 238.42 203.868 238.441 203.896 238.462C203.924 238.483 203.952 238.505 203.98 238.525C203.986 238.529 203.992 238.533 203.997 238.537C204.003 238.541 204.009 238.546 204.015 238.55C204.046 238.572 204.078 238.595 204.109 238.616C204.131 238.631 204.152 238.645 204.174 238.659C204.224 238.692 204.276 238.725 204.327 238.756C204.338 238.763 204.349 238.77 204.36 238.776C204.419 238.812 204.479 238.845 204.539 238.878C204.549 238.883 204.56 238.889 204.57 238.895C204.624 238.923 204.677 238.95 204.731 238.977C204.764 238.992 204.797 239.007 204.829 239.022C204.866 239.04 204.904 239.057 204.941 239.073C204.969 239.085 204.996 239.097 205.023 239.108C205.026 239.11 205.03 239.11 205.033 239.111C205.053 239.119 205.073 239.127 205.093 239.135C205.115 239.144 205.137 239.154 205.159 239.162C205.205 239.179 205.252 239.195 205.299 239.211C205.305 239.213 205.311 239.217 205.317 239.219C205.344 239.228 205.371 239.237 205.398 239.245C205.449 239.261 205.5 239.277 205.552 239.292C205.572 239.298 205.592 239.302 205.611 239.308C205.939 239.397 206.277 239.456 206.621 239.477L240.51 242.437C231.631 250.843 219.644 256 206.452 256H49.5488C36.3403 256 24.3393 250.831 15.457 242.406L49.126 239.466C49.1324 239.465 49.139 239.463 49.1455 239.463C49.358 239.443 49.568 239.411 49.7744 239.365C49.7879 239.362 49.802 239.359 49.8154 239.355C49.875 239.342 49.9342 239.327 49.9932 239.311C50.0311 239.3 50.0688 239.289 50.1064 239.278C50.1419 239.268 50.1777 239.257 50.2129 239.246C50.2353 239.239 50.258 239.231 50.2803 239.224C50.3015 239.217 50.3227 239.21 50.3438 239.202C50.3793 239.19 50.415 239.177 50.4502 239.164C50.4811 239.152 50.5113 239.139 50.542 239.127C50.5631 239.119 50.5845 239.11 50.6055 239.102C50.6239 239.094 50.6428 239.086 50.6611 239.078C50.71 239.057 50.7584 239.035 50.8066 239.013C50.8272 239.003 50.8487 238.994 50.8691 238.984C50.9276 238.956 50.9854 238.926 51.043 238.896C51.0542 238.89 51.066 238.884 51.0771 238.878C51.137 238.845 51.1962 238.811 51.2549 238.776C51.2654 238.77 51.2756 238.763 51.2861 238.757C51.3378 238.725 51.3897 238.693 51.4404 238.659C51.4616 238.645 51.483 238.63 51.5039 238.616C51.5388 238.592 51.574 238.569 51.6084 238.544C51.6205 238.535 51.6325 238.526 51.6445 238.518C51.6622 238.505 51.6798 238.492 51.6973 238.479C51.7367 238.449 51.7757 238.418 51.8145 238.387C51.841 238.365 51.8665 238.343 51.8926 238.321C51.9228 238.296 51.9537 238.271 51.9834 238.245C52.0133 238.219 52.0439 238.193 52.0732 238.166C52.0857 238.155 52.098 238.142 52.1104 238.131C52.1114 238.13 52.1122 238.128 52.1133 238.127C52.132 238.109 52.1514 238.092 52.1699 238.074C52.205 238.04 52.2393 238.006 52.2734 237.971C52.2868 237.957 52.3003 237.944 52.3135 237.93C52.3179 237.925 52.3228 237.921 52.3271 237.916C52.3317 237.911 52.3353 237.905 52.3398 237.9C52.385 237.852 52.4293 237.803 52.4727 237.753C52.4843 237.739 52.4963 237.726 52.5078 237.713C52.6046 237.599 52.6965 237.479 52.7832 237.355C52.7934 237.341 52.8045 237.326 52.8145 237.312C52.8529 237.255 52.8905 237.199 52.9268 237.141C52.934 237.129 52.942 237.117 52.9492 237.105C52.9699 237.072 52.9898 237.037 53.0098 237.003C53.0104 237.002 53.0111 237.001 53.0117 237C53.0148 236.995 53.0184 236.99 53.0215 236.984C53.0232 236.981 53.0247 236.978 53.0264 236.975C53.0483 236.936 53.0699 236.898 53.0908 236.859C53.0947 236.852 53.0977 236.844 53.1016 236.837C53.1365 236.771 53.1713 236.705 53.2031 236.639C53.2081 236.628 53.2128 236.617 53.2178 236.606C53.2839 236.465 53.3423 236.322 53.3945 236.177C53.4015 236.157 53.4083 236.138 53.415 236.118C53.4366 236.056 53.4566 235.993 53.4756 235.93C53.4769 235.925 53.4801 235.92 53.4814 235.916C53.4823 235.913 53.4825 235.909 53.4834 235.906C53.49 235.884 53.4956 235.861 53.502 235.839C53.5149 235.793 53.5275 235.746 53.5391 235.7C53.5442 235.68 53.5498 235.659 53.5547 235.639C53.557 235.629 53.5593 235.619 53.5615 235.609C53.5642 235.598 53.5677 235.586 53.5703 235.574C53.5803 235.529 53.5879 235.484 53.5967 235.438C53.5992 235.425 53.602 235.412 53.6045 235.399C53.61 235.37 53.6161 235.34 53.6211 235.311C53.6233 235.298 53.6259 235.284 53.6279 235.271C53.6307 235.254 53.6321 235.235 53.6348 235.218C53.6398 235.184 53.6451 235.15 53.6494 235.116C53.6539 235.081 53.6584 235.046 53.6621 235.011C53.6628 235.004 53.6634 234.997 53.6641 234.99C53.6648 234.983 53.6653 234.976 53.666 234.969C53.6698 234.931 53.6729 234.893 53.6758 234.854C53.6777 234.829 53.6801 234.802 53.6816 234.776C53.6852 234.716 53.6871 234.656 53.6885 234.596C53.6888 234.583 53.6902 234.57 53.6904 234.557C53.6915 234.488 53.6903 234.419 53.6885 234.351C53.6882 234.339 53.6869 234.327 53.6865 234.315C53.6845 234.255 53.6819 234.195 53.6777 234.135C53.6752 234.099 53.6712 234.063 53.668 234.027C53.6642 233.986 53.661 233.945 53.6562 233.904C53.6528 233.875 53.6495 233.845 53.6455 233.815C53.645 233.812 53.644 233.809 53.6436 233.806C53.6407 233.785 53.6369 233.764 53.6338 233.743C53.6302 233.719 53.628 233.695 53.624 233.671C53.6161 233.623 53.606 233.575 53.5967 233.526C53.5954 233.52 53.595 233.513 53.5938 233.507C53.5882 233.479 53.5822 233.451 53.5762 233.423C53.5649 233.371 53.553 233.318 53.54 233.267C53.535 233.247 53.5297 233.227 53.5244 233.207C53.438 232.879 53.3189 232.557 53.165 232.249L10.6084 141.018C10.6076 141.016 10.6062 141.014 10.6055 141.013C10.1869 140.116 9.4992 139.334 8.57715 138.802C7.59686 138.236 6.50477 138.04 5.46191 138.17L0 138.78V49.5488C0 22.184 22.184 0 49.5488 0H206.452ZM251.88 226.255C250.843 228.63 249.628 230.908 248.247 233.071L233.422 231.776L251.88 226.255ZM22.1973 231.779L7.73438 233.042C6.38741 230.928 5.19776 228.705 4.17871 226.39L22.1973 231.779ZM29.9355 223.656L0.72168 214.918C0.247992 212.167 0 209.338 0 206.451V195.398L29.9355 223.656ZM256 206.451C256 209.295 255.76 212.082 255.3 214.795L225.678 223.654L256 195.032V206.451ZM256 164.327V181.28L222.511 212.892L250.008 153.948L256 164.327ZM33.0967 212.889L0 181.646V163.658L5.60547 153.949L33.0967 212.889ZM98.8184 62C98.7505 62.0013 98.6824 62.0038 98.6143 62.0078C98.6097 62.0081 98.6051 62.0085 98.6006 62.0088C98.5087 62.0145 98.4165 62.0223 98.3242 62.0332C98.3187 62.0338 98.3131 62.0345 98.3076 62.0352C98.2269 62.0449 98.1463 62.0575 98.0654 62.0713C98.0511 62.0737 98.0367 62.0756 98.0225 62.0781L98.001 62.082C97.9171 62.0975 97.833 62.1148 97.749 62.1348C97.7458 62.1355 97.7425 62.1359 97.7393 62.1367C97.7323 62.1384 97.7257 62.1409 97.7188 62.1426C97.6331 62.1635 97.5484 62.1859 97.4648 62.2109C97.4498 62.2155 97.435 62.2209 97.4199 62.2256C97.3424 62.2496 97.266 62.2753 97.1904 62.3027C97.1823 62.3057 97.1741 62.3085 97.166 62.3115C96.4307 62.583 95.7906 63.0156 95.2764 63.5586C95.2673 63.5681 95.258 63.5773 95.249 63.5869C95.122 63.7231 95.0024 63.8656 94.8916 64.0146C94.8869 64.021 94.8826 64.0278 94.8779 64.0342L65.9746 103.26C65.9381 103.309 65.9027 103.36 65.8682 103.41C65.7995 103.511 65.7342 103.614 65.6729 103.72C65.6589 103.744 65.6453 103.768 65.6318 103.792C65.6106 103.83 65.5906 103.869 65.5703 103.907C65.5606 103.926 65.5505 103.944 65.541 103.963C65.261 104.514 65.0801 105.123 65.0215 105.768C65.0203 105.781 65.0197 105.794 65.0186 105.808C65.0095 105.917 65.0039 106.027 65.002 106.139C65.0017 106.151 65.0011 106.164 65.001 106.177C65.0008 106.193 65 106.209 65 106.226C65 106.327 65.0038 106.428 65.0098 106.527C65.0109 106.547 65.0133 106.566 65.0146 106.585C65.0802 107.508 65.3955 108.361 65.8945 109.078C65.8979 109.083 65.9009 109.088 65.9043 109.093L123.71 191.674C123.714 191.679 123.718 191.684 123.722 191.689C123.845 191.864 123.978 192.03 124.121 192.186C124.13 192.196 124.14 192.206 124.149 192.216C124.191 192.261 124.234 192.305 124.277 192.348C124.305 192.375 124.334 192.403 124.362 192.43C124.389 192.455 124.416 192.481 124.443 192.506C124.461 192.522 124.478 192.537 124.496 192.553C124.513 192.568 124.53 192.582 124.547 192.597C124.575 192.621 124.604 192.646 124.633 192.67C124.658 192.691 124.685 192.711 124.711 192.731C124.729 192.746 124.747 192.76 124.765 192.773C124.781 192.786 124.796 192.798 124.812 192.81C124.855 192.842 124.899 192.873 124.942 192.903C124.961 192.916 124.979 192.93 124.998 192.942C125.052 192.979 125.107 193.014 125.162 193.049C125.173 193.056 125.183 193.063 125.194 193.069C125.252 193.105 125.311 193.14 125.371 193.173C125.382 193.179 125.393 193.184 125.404 193.19C125.457 193.22 125.511 193.248 125.565 193.275C125.588 193.287 125.611 193.298 125.634 193.309C125.672 193.327 125.71 193.346 125.749 193.363C125.763 193.369 125.776 193.375 125.79 193.381C125.81 193.39 125.83 193.399 125.851 193.407C125.896 193.426 125.942 193.445 125.988 193.463C126.02 193.475 126.052 193.486 126.084 193.498C126.121 193.512 126.158 193.525 126.195 193.538C126.233 193.551 126.271 193.564 126.309 193.576C126.325 193.581 126.341 193.586 126.357 193.591C126.359 193.591 126.361 193.591 126.362 193.592C126.387 193.599 126.412 193.607 126.437 193.614C126.483 193.628 126.531 193.64 126.578 193.652C126.597 193.657 126.615 193.662 126.634 193.666C126.64 193.668 126.646 193.669 126.652 193.671C126.659 193.672 126.665 193.673 126.672 193.675C126.736 193.69 126.801 193.703 126.866 193.716C126.884 193.719 126.901 193.723 126.919 193.727C127.066 193.753 127.216 193.773 127.366 193.786C127.384 193.788 127.401 193.79 127.419 193.791C127.487 193.796 127.555 193.8 127.624 193.803C127.638 193.803 127.651 193.804 127.665 193.805C127.705 193.806 127.744 193.806 127.784 193.806C127.785 193.806 127.787 193.806 127.788 193.806C127.794 193.806 127.8 193.807 127.807 193.807C127.81 193.807 127.814 193.806 127.817 193.806C127.861 193.806 127.905 193.806 127.949 193.805C127.958 193.804 127.966 193.803 127.975 193.803C128.049 193.8 128.123 193.797 128.196 193.791C128.208 193.79 128.22 193.789 128.231 193.788C128.387 193.775 128.54 193.754 128.692 193.727C128.713 193.723 128.733 193.719 128.753 193.715C128.818 193.702 128.883 193.688 128.947 193.673C128.952 193.672 128.956 193.672 128.961 193.671C128.964 193.67 128.967 193.669 128.971 193.668C128.994 193.662 129.016 193.656 129.039 193.65C129.085 193.639 129.132 193.626 129.178 193.613C129.198 193.608 129.218 193.602 129.238 193.596C129.248 193.593 129.258 193.59 129.268 193.587C129.279 193.583 129.29 193.581 129.302 193.577C129.346 193.563 129.389 193.547 129.433 193.532C129.445 193.528 129.458 193.524 129.471 193.52C129.499 193.509 129.528 193.5 129.556 193.489C129.568 193.485 129.58 193.48 129.593 193.476C129.61 193.469 129.626 193.462 129.643 193.455C129.675 193.442 129.707 193.43 129.738 193.417C129.771 193.403 129.804 193.389 129.836 193.375C129.842 193.372 129.848 193.369 129.854 193.366C129.861 193.363 129.868 193.36 129.874 193.357C129.909 193.342 129.944 193.325 129.979 193.309C130.002 193.297 130.026 193.286 130.049 193.274C130.103 193.247 130.156 193.219 130.209 193.19C130.22 193.184 130.232 193.178 130.243 193.172C130.303 193.138 130.362 193.103 130.421 193.067C130.431 193.061 130.44 193.055 130.45 193.049C130.502 193.017 130.552 192.984 130.603 192.95C130.632 192.93 130.661 192.909 130.69 192.889C130.724 192.865 130.758 192.841 130.791 192.816C130.815 192.799 130.839 192.781 130.862 192.763C130.865 192.761 130.867 192.758 130.87 192.756C130.887 192.743 130.903 192.73 130.92 192.717C130.939 192.702 130.958 192.687 130.977 192.672C131.015 192.641 131.052 192.608 131.089 192.576C131.094 192.572 131.099 192.568 131.104 192.563C131.126 192.545 131.147 192.526 131.168 192.507C131.208 192.471 131.247 192.435 131.285 192.397C131.3 192.383 131.314 192.368 131.329 192.354C131.57 192.114 131.789 191.851 131.979 191.563L189.709 109.093C189.71 109.091 189.711 109.089 189.712 109.088C190.279 108.277 190.613 107.29 190.613 106.226C190.613 105.094 190.237 104.05 189.603 103.212L160.735 64.0342C160.73 64.0265 160.723 64.0193 160.718 64.0117C160.677 63.9572 160.636 63.9034 160.593 63.8506C160.581 63.8355 160.569 63.8197 160.557 63.8047C160.386 63.5992 160.198 63.4083 159.995 63.2314C159.986 63.2239 159.978 63.2165 159.969 63.209C159.909 63.1571 159.847 63.1067 159.784 63.0576C159.778 63.0528 159.772 63.0478 159.766 63.043C159.635 62.9419 159.499 62.8471 159.357 62.7588C159.341 62.7486 159.325 62.7385 159.309 62.7285C159.012 62.5479 158.693 62.3949 158.354 62.2773C158.332 62.2696 158.309 62.2633 158.287 62.2559C158.222 62.2344 158.157 62.2133 158.091 62.1943C158.078 62.1905 158.064 62.1873 158.051 62.1836C157.989 62.1665 157.927 62.1497 157.864 62.1348C157.858 62.1334 157.853 62.1322 157.847 62.1309C157.8 62.1199 157.752 62.1102 157.705 62.1006C157.666 62.0926 157.627 62.0851 157.588 62.0781C157.548 62.071 157.507 62.0648 157.467 62.0586C157.415 62.0505 157.363 62.0425 157.311 62.0361C157.286 62.0332 157.262 62.0309 157.237 62.0283C157.161 62.0202 157.085 62.0134 157.01 62.0088C157.009 62.0087 157.007 62.0089 157.006 62.0088L157 62.0078C156.931 62.0038 156.863 62.0013 156.795 62H98.8184ZM141.076 111.226L127.806 167.149L114.537 111.226H141.076ZM104.259 111.226L116.901 164.51L79.6035 111.226H104.259ZM176.009 111.226L138.712 164.504L151.354 111.226H176.009ZM101.886 101.226H79.8945L96.5283 78.6504L101.886 101.226ZM150.385 72L143.449 101.226H112.164L105.229 72H150.385ZM175.718 101.226H153.728L159.084 78.6504L175.718 101.226Z" fill="url(#paint0_linear_47_39)"/>
<path d="M249.908 138.146C249.97 138.15 250.031 138.155 250.092 138.162L256 138.822V164.327L250.008 153.948L222.511 212.892L256 181.28V195.032L225.678 223.654L255.3 214.795C254.621 218.799 253.459 222.639 251.88 226.255L233.422 231.776L248.247 233.071C246.056 236.504 243.454 239.649 240.51 242.437L206.621 239.477C206.277 239.456 205.939 239.397 205.612 239.308C205.592 239.302 205.572 239.298 205.552 239.292C205.501 239.277 205.449 239.261 205.399 239.245C205.372 239.237 205.344 239.228 205.318 239.219C205.311 239.217 205.305 239.213 205.299 239.211C205.253 239.195 205.205 239.179 205.159 239.162C205.137 239.154 205.115 239.144 205.093 239.135C205.073 239.127 205.053 239.119 205.033 239.111C205.03 239.11 205.027 239.11 205.024 239.108C204.996 239.097 204.969 239.085 204.942 239.073C204.904 239.057 204.867 239.04 204.829 239.022C204.797 239.007 204.764 238.992 204.732 238.977C204.678 238.95 204.624 238.923 204.571 238.895C204.56 238.889 204.549 238.883 204.539 238.878C204.479 238.845 204.42 238.812 204.361 238.776C204.35 238.77 204.338 238.763 204.327 238.756C204.276 238.725 204.225 238.692 204.174 238.659C204.152 238.645 204.131 238.631 204.11 238.616C204.078 238.595 204.046 238.572 204.015 238.55C204.009 238.546 204.003 238.541 203.997 238.537C203.992 238.533 203.986 238.529 203.981 238.525C203.952 238.505 203.924 238.483 203.896 238.462C203.869 238.441 203.842 238.42 203.815 238.398C203.801 238.387 203.786 238.377 203.772 238.365C203.762 238.357 203.752 238.348 203.741 238.34C203.718 238.321 203.696 238.301 203.673 238.281C203.663 238.273 203.653 238.264 203.643 238.255C203.608 238.225 203.572 238.195 203.538 238.164C203.53 238.156 203.522 238.148 203.513 238.14C203.505 238.133 203.498 238.125 203.49 238.118C203.475 238.104 203.461 238.089 203.446 238.074L203.294 237.923C203.292 237.92 203.289 237.918 203.286 237.916C203.283 237.913 203.282 237.909 203.279 237.905C203.233 237.857 203.188 237.808 203.145 237.758C203.131 237.742 203.118 237.727 203.105 237.711C203.005 237.593 202.91 237.471 202.821 237.343C202.814 237.333 202.807 237.323 202.8 237.313C202.758 237.253 202.719 237.19 202.68 237.127C202.675 237.12 202.67 237.114 202.665 237.106C202.642 237.069 202.62 237.031 202.598 236.993C202.596 236.99 202.594 236.986 202.592 236.983C202.589 236.978 202.586 236.973 202.583 236.968C202.583 236.967 202.582 236.965 202.581 236.964C202.562 236.929 202.542 236.895 202.523 236.86C202.516 236.848 202.51 236.836 202.504 236.824C202.472 236.764 202.441 236.702 202.411 236.641C202.404 236.625 202.397 236.608 202.39 236.592C202.326 236.455 202.269 236.316 202.218 236.175C202.212 236.158 202.206 236.141 202.2 236.124C202.179 236.061 202.158 235.999 202.139 235.936C202.137 235.929 202.134 235.922 202.132 235.916C202.13 235.91 202.129 235.903 202.127 235.897C202.122 235.879 202.117 235.861 202.112 235.843C202.098 235.796 202.085 235.749 202.073 235.701C202.067 235.676 202.062 235.651 202.056 235.626C202.056 235.624 202.054 235.623 202.054 235.621C202.05 235.605 202.046 235.588 202.042 235.571C202.034 235.532 202.026 235.493 202.019 235.454C202.011 235.415 202.005 235.377 201.998 235.338C201.992 235.304 201.986 235.271 201.981 235.237C201.973 235.188 201.966 235.139 201.96 235.09C201.958 235.068 201.955 235.046 201.952 235.024C201.951 235.01 201.949 234.995 201.948 234.98C201.943 234.938 201.94 234.896 201.937 234.854C201.935 234.828 201.933 234.803 201.932 234.777C201.928 234.717 201.926 234.656 201.925 234.596C201.925 234.583 201.923 234.57 201.923 234.558C201.922 234.489 201.922 234.421 201.924 234.353C201.924 234.34 201.926 234.327 201.926 234.314C201.928 234.249 201.932 234.184 201.937 234.119C201.938 234.097 201.941 234.074 201.943 234.052C201.947 233.999 201.952 233.945 201.958 233.893C201.961 233.873 201.963 233.853 201.966 233.833C201.969 233.811 201.973 233.788 201.976 233.766C201.981 233.733 201.984 233.7 201.99 233.667C201.996 233.63 202.003 233.593 202.01 233.556C202.014 233.534 202.018 233.512 202.023 233.49C202.027 233.467 202.032 233.444 202.037 233.421C202.045 233.385 202.054 233.349 202.063 233.312C202.072 233.274 202.081 233.236 202.091 233.198C202.107 233.139 202.123 233.08 202.141 233.021C202.145 233.008 202.149 232.995 202.154 232.981C202.217 232.78 202.294 232.582 202.383 232.388C202.386 232.382 202.388 232.376 202.391 232.37L245.005 141.018C245.008 141.012 245.01 141.007 245.013 141.002C245.384 140.211 245.966 139.511 246.733 138.993C246.748 138.983 246.764 138.971 246.78 138.961C246.863 138.906 246.949 138.851 247.036 138.801C247.05 138.793 247.065 138.785 247.079 138.777C247.09 138.771 247.102 138.766 247.113 138.76C247.21 138.706 247.308 138.655 247.407 138.608C247.42 138.603 247.431 138.596 247.444 138.591C248.031 138.319 248.649 138.172 249.266 138.139C249.287 138.138 249.308 138.137 249.329 138.136C249.373 138.134 249.417 138.132 249.46 138.132C249.488 138.131 249.516 138.131 249.543 138.131C249.665 138.131 249.787 138.136 249.908 138.146ZM5.46216 138.17C6.50502 138.04 7.5971 138.236 8.57739 138.802C9.49944 139.334 10.1871 140.116 10.6057 141.013C10.6064 141.014 10.6079 141.016 10.6086 141.018L53.1653 232.249C53.3192 232.557 53.4383 232.879 53.5247 233.207C53.5299 233.227 53.5353 233.247 53.5403 233.267C53.5532 233.318 53.5652 233.371 53.5764 233.423C53.5825 233.451 53.5884 233.479 53.594 233.507C53.5952 233.513 53.5957 233.52 53.5969 233.526C53.6063 233.575 53.6163 233.623 53.6243 233.671C53.6282 233.695 53.6304 233.719 53.634 233.743C53.6371 233.764 53.641 233.785 53.6438 233.806C53.6443 233.809 53.6453 233.812 53.6458 233.815C53.6497 233.845 53.6531 233.875 53.6565 233.904C53.6613 233.945 53.6644 233.986 53.6682 234.027C53.6715 234.063 53.6755 234.099 53.678 234.135C53.6822 234.195 53.6847 234.255 53.6868 234.315C53.6872 234.327 53.6884 234.339 53.6887 234.351C53.6905 234.419 53.6917 234.488 53.6907 234.557C53.6905 234.57 53.689 234.583 53.6887 234.596C53.6873 234.656 53.6855 234.716 53.6819 234.776C53.6804 234.802 53.6779 234.829 53.676 234.854C53.6732 234.893 53.67 234.931 53.6663 234.969C53.6656 234.976 53.665 234.983 53.6643 234.99C53.6636 234.997 53.6631 235.004 53.6624 235.011C53.6586 235.046 53.6541 235.081 53.6497 235.116C53.6453 235.15 53.6401 235.184 53.635 235.218C53.6324 235.235 53.631 235.254 53.6282 235.271C53.6261 235.284 53.6235 235.298 53.6213 235.311C53.6164 235.34 53.6102 235.37 53.6047 235.399C53.6023 235.412 53.5995 235.425 53.5969 235.438C53.5882 235.484 53.5806 235.529 53.5706 235.574C53.568 235.586 53.5644 235.598 53.5618 235.609C53.5595 235.619 53.5572 235.629 53.5549 235.639C53.5501 235.659 53.5444 235.68 53.5393 235.7C53.5277 235.746 53.5151 235.793 53.5022 235.839C53.4959 235.861 53.4903 235.884 53.4836 235.906C53.4827 235.909 53.4826 235.913 53.4817 235.916C53.4804 235.92 53.4772 235.925 53.4758 235.93C53.4568 235.993 53.4369 236.056 53.4153 236.118C53.4086 236.138 53.4017 236.157 53.3948 236.177C53.3426 236.322 53.2842 236.465 53.218 236.606C53.2131 236.617 53.2084 236.628 53.2034 236.639C53.1715 236.705 53.1368 236.771 53.1018 236.837C53.098 236.844 53.095 236.852 53.0911 236.859C53.0702 236.898 53.0486 236.936 53.0266 236.975C53.0249 236.978 53.0234 236.981 53.0217 236.984C53.0187 236.99 53.015 236.995 53.012 237C53.0114 237.001 53.0106 237.002 53.01 237.003C52.99 237.037 52.9702 237.072 52.9495 237.105C52.9423 237.117 52.9343 237.129 52.927 237.141C52.8907 237.199 52.8532 237.255 52.8147 237.312C52.8047 237.326 52.7936 237.341 52.7834 237.355C52.6967 237.479 52.6048 237.599 52.5081 237.713C52.4966 237.726 52.4845 237.739 52.4729 237.753C52.4296 237.803 52.3853 237.852 52.3401 237.9C52.3356 237.905 52.3319 237.911 52.3274 237.916C52.323 237.921 52.3181 237.925 52.3137 237.93C52.3006 237.944 52.287 237.957 52.2737 237.971C52.2396 238.006 52.2052 238.04 52.1702 238.074C52.1517 238.092 52.1322 238.109 52.1135 238.127C52.1124 238.128 52.1116 238.13 52.1106 238.131C52.0983 238.142 52.0859 238.155 52.0735 238.166C52.0441 238.193 52.0136 238.219 51.9836 238.245C51.9539 238.271 51.923 238.296 51.8928 238.321C51.8667 238.343 51.8412 238.365 51.8147 238.387C51.776 238.418 51.7369 238.449 51.6975 238.479C51.68 238.492 51.6624 238.505 51.6448 238.518C51.6328 238.526 51.6207 238.535 51.6086 238.544C51.5742 238.569 51.5391 238.592 51.5042 238.616C51.4832 238.63 51.4618 238.645 51.4407 238.659C51.3899 238.693 51.3381 238.725 51.2864 238.757C51.2759 238.763 51.2657 238.77 51.2551 238.776C51.1964 238.811 51.1372 238.845 51.0774 238.878C51.0662 238.884 51.0544 238.89 51.0432 238.896C50.9857 238.926 50.9279 238.956 50.8694 238.984C50.849 238.994 50.8274 239.003 50.8069 239.013C50.7586 239.035 50.7102 239.057 50.6614 239.078C50.643 239.086 50.6242 239.094 50.6057 239.102C50.5847 239.11 50.5633 239.119 50.5422 239.127C50.5115 239.139 50.4813 239.152 50.4504 239.164C50.4152 239.177 50.3795 239.19 50.344 239.202C50.3229 239.21 50.3017 239.217 50.2805 239.224C50.2582 239.231 50.2355 239.239 50.2131 239.246C50.1779 239.257 50.1422 239.268 50.1067 239.278C50.069 239.289 50.0313 239.3 49.9934 239.311C49.9345 239.327 49.8753 239.342 49.8157 239.355C49.8022 239.359 49.7881 239.362 49.7747 239.365C49.5683 239.411 49.3583 239.443 49.1458 239.463C49.1393 239.463 49.1327 239.465 49.1262 239.466L15.4573 242.406C12.5181 239.618 9.92143 236.474 7.73462 233.042L22.1975 231.779L4.17896 226.39C2.58659 222.771 1.41229 218.928 0.721924 214.918L29.9358 223.656L0.000244141 195.398V181.646L33.0969 212.889L5.60571 153.949L0.000244141 163.658V138.78L5.46216 138.17ZM157 62.0078L157.006 62.0088C157.007 62.0089 157.009 62.0087 157.01 62.0088C157.086 62.0134 157.162 62.0202 157.238 62.0283C157.262 62.0309 157.286 62.0332 157.311 62.0361C157.363 62.0425 157.415 62.0505 157.467 62.0586C157.508 62.0648 157.548 62.071 157.588 62.0781C157.627 62.0851 157.666 62.0926 157.705 62.1006C157.753 62.1102 157.8 62.1199 157.847 62.1309C157.853 62.1322 157.859 62.1334 157.865 62.1348C157.927 62.1497 157.989 62.1665 158.051 62.1836C158.064 62.1873 158.078 62.1905 158.091 62.1943C158.157 62.2133 158.223 62.2344 158.287 62.2559C158.31 62.2633 158.332 62.2696 158.355 62.2773C158.694 62.3949 159.012 62.5479 159.309 62.7285C159.325 62.7385 159.341 62.7486 159.358 62.7588C159.499 62.8471 159.635 62.9419 159.766 63.043C159.772 63.0478 159.778 63.0528 159.784 63.0576C159.847 63.1067 159.909 63.1571 159.969 63.209C159.978 63.2165 159.987 63.2239 159.995 63.2314C160.198 63.4083 160.386 63.5992 160.557 63.8047C160.569 63.8197 160.581 63.8355 160.593 63.8506C160.636 63.9034 160.677 63.9572 160.718 64.0117C160.724 64.0193 160.73 64.0265 160.736 64.0342L189.603 103.212C190.237 104.05 190.613 105.094 190.614 106.226C190.614 107.29 190.28 108.277 189.712 109.088C189.711 109.089 189.71 109.091 189.709 109.093L131.98 191.563C131.79 191.851 131.571 192.114 131.329 192.354C131.315 192.368 131.3 192.383 131.285 192.397C131.247 192.435 131.208 192.471 131.168 192.507C131.147 192.526 131.126 192.545 131.105 192.563C131.1 192.568 131.094 192.572 131.089 192.576C131.052 192.608 131.015 192.641 130.977 192.672C130.958 192.687 130.939 192.702 130.92 192.717C130.904 192.73 130.887 192.743 130.87 192.756C130.868 192.758 130.865 192.761 130.863 192.763C130.839 192.781 130.815 192.799 130.791 192.816C130.758 192.841 130.724 192.865 130.691 192.889C130.661 192.909 130.632 192.93 130.603 192.95C130.553 192.984 130.502 193.017 130.45 193.049C130.441 193.055 130.431 193.061 130.421 193.067C130.363 193.103 130.304 193.138 130.243 193.172C130.232 193.178 130.221 193.184 130.209 193.19C130.156 193.219 130.103 193.247 130.049 193.274C130.026 193.286 130.002 193.297 129.979 193.309C129.944 193.325 129.909 193.342 129.874 193.357C129.868 193.36 129.861 193.363 129.855 193.366C129.848 193.369 129.842 193.372 129.836 193.375C129.804 193.389 129.771 193.403 129.739 193.417C129.707 193.43 129.675 193.442 129.643 193.455C129.626 193.462 129.61 193.469 129.593 193.476C129.581 193.48 129.568 193.485 129.556 193.489C129.528 193.5 129.499 193.509 129.471 193.52C129.458 193.524 129.446 193.528 129.433 193.532C129.389 193.547 129.346 193.563 129.302 193.577C129.291 193.581 129.279 193.583 129.268 193.587C129.258 193.59 129.248 193.593 129.239 193.596C129.218 193.602 129.198 193.608 129.178 193.613C129.132 193.626 129.086 193.639 129.039 193.65C129.017 193.656 128.994 193.662 128.971 193.668C128.968 193.669 128.964 193.67 128.961 193.671C128.957 193.672 128.952 193.672 128.948 193.673C128.883 193.688 128.818 193.702 128.753 193.715C128.733 193.719 128.713 193.723 128.693 193.727C128.541 193.754 128.387 193.775 128.232 193.788C128.22 193.789 128.208 193.79 128.197 193.791C128.123 193.797 128.049 193.8 127.975 193.803C127.966 193.803 127.958 193.804 127.949 193.805C127.906 193.806 127.862 193.806 127.818 193.806C127.814 193.806 127.81 193.807 127.807 193.807C127.801 193.807 127.795 193.806 127.788 193.806C127.787 193.806 127.786 193.806 127.784 193.806C127.745 193.806 127.705 193.806 127.665 193.805C127.652 193.804 127.638 193.803 127.624 193.803C127.556 193.8 127.487 193.796 127.419 193.791C127.402 193.79 127.384 193.788 127.366 193.786C127.216 193.773 127.067 193.753 126.919 193.727C126.902 193.723 126.884 193.719 126.866 193.716C126.801 193.703 126.737 193.69 126.672 193.675C126.666 193.673 126.659 193.672 126.653 193.671C126.646 193.669 126.64 193.668 126.634 193.666C126.615 193.662 126.597 193.657 126.578 193.652C126.531 193.64 126.484 193.628 126.437 193.614C126.412 193.607 126.387 193.599 126.363 193.592C126.361 193.591 126.359 193.591 126.358 193.591C126.341 193.586 126.325 193.581 126.309 193.576C126.271 193.564 126.233 193.551 126.196 193.538C126.158 193.525 126.121 193.512 126.084 193.498C126.052 193.486 126.02 193.475 125.989 193.463C125.942 193.445 125.896 193.426 125.851 193.407C125.831 193.399 125.81 193.39 125.79 193.381C125.777 193.375 125.763 193.369 125.749 193.363C125.71 193.346 125.672 193.327 125.634 193.309C125.611 193.298 125.588 193.287 125.566 193.275C125.511 193.248 125.458 193.22 125.405 193.19C125.394 193.184 125.382 193.179 125.371 193.173C125.312 193.14 125.253 193.105 125.195 193.069C125.184 193.063 125.173 193.056 125.162 193.049C125.107 193.014 125.052 192.979 124.998 192.942C124.98 192.93 124.961 192.916 124.943 192.903C124.899 192.873 124.855 192.842 124.813 192.81C124.797 192.798 124.781 192.786 124.765 192.773C124.747 192.76 124.729 192.746 124.711 192.731C124.685 192.711 124.659 192.691 124.633 192.67C124.604 192.646 124.576 192.621 124.547 192.597C124.53 192.582 124.513 192.568 124.496 192.553C124.479 192.537 124.461 192.522 124.444 192.506C124.416 192.481 124.389 192.455 124.363 192.43C124.334 192.403 124.305 192.375 124.278 192.348C124.234 192.305 124.192 192.261 124.15 192.216C124.14 192.206 124.131 192.196 124.121 192.186C123.978 192.03 123.845 191.864 123.722 191.689C123.718 191.684 123.714 191.679 123.71 191.674L65.9045 109.093C65.9012 109.088 65.8981 109.083 65.8948 109.078C65.3958 108.361 65.0804 107.508 65.0149 106.585C65.0135 106.566 65.0112 106.547 65.01 106.527C65.0041 106.428 65.0002 106.327 65.0002 106.226C65.0002 106.209 65.0011 106.193 65.0012 106.177C65.0013 106.164 65.002 106.151 65.0022 106.139C65.0041 106.027 65.0097 105.917 65.0188 105.808C65.0199 105.794 65.0205 105.781 65.0217 105.768C65.0803 105.123 65.2613 104.514 65.5413 103.963C65.5507 103.944 65.5608 103.926 65.5706 103.907C65.5908 103.869 65.6109 103.83 65.6321 103.792C65.6456 103.768 65.6592 103.744 65.6731 103.72C65.7345 103.614 65.7997 103.511 65.8684 103.41C65.9029 103.36 65.9383 103.309 65.9749 103.26L94.8782 64.0342C94.8828 64.0278 94.8871 64.021 94.8918 64.0146C95.0026 63.8656 95.1223 63.7231 95.2493 63.5869C95.2582 63.5773 95.2676 63.5681 95.2766 63.5586C95.7908 63.0156 96.4309 62.583 97.1663 62.3115C97.1744 62.3085 97.1825 62.3057 97.1907 62.3027C97.2662 62.2753 97.3427 62.2496 97.4202 62.2256C97.4352 62.2209 97.45 62.2155 97.4651 62.2109C97.5486 62.1859 97.6333 62.1635 97.719 62.1426C97.7259 62.1409 97.7326 62.1384 97.7395 62.1367C97.7427 62.1359 97.746 62.1355 97.7493 62.1348C97.8332 62.1148 97.9173 62.0975 98.0012 62.082L98.0227 62.0781C98.037 62.0756 98.0514 62.0737 98.0657 62.0713C98.1465 62.0575 98.2272 62.0449 98.3079 62.0352C98.3134 62.0345 98.3189 62.0338 98.3245 62.0332C98.4168 62.0223 98.5089 62.0145 98.6008 62.0088C98.6054 62.0085 98.6099 62.0081 98.6145 62.0078C98.6827 62.0038 98.7507 62.0013 98.8186 62H156.795C156.863 62.0013 156.932 62.0038 157 62.0078ZM127.806 167.149L141.076 111.226H114.537L127.806 167.149ZM116.902 164.51L104.259 111.226H79.6038L116.902 164.51ZM138.712 164.504L176.009 111.226H151.355L138.712 164.504ZM79.8948 101.226H101.886L96.5286 78.6504L79.8948 101.226ZM112.164 101.226H143.449L150.385 72H105.229L112.164 101.226ZM153.728 101.226H175.718L159.084 78.6504L153.728 101.226Z" fill="white"/>
<defs>
<linearGradient id="paint0_linear_47_39" x1="165.678" y1="-279.226" x2="17.5486" y2="247.742" gradientUnits="userSpaceOnUse">
<stop stop-color="white"/>
<stop offset="0.774038" stop-color="#00144B"/>
</linearGradient>
</defs>
</svg>
